<?xml version="1.0" encoding="UTF-8"?><svg id="Layer_1" xmlns="http://www.w3.org/2000/svg" viewBox="0 0 64 64"><path d="M13.75,41.04s.01.01.02.01c-.13.17-.34.28-.56.28-.39,0-.7-.32-.7-.7s.31-.7.7-.7c.19,0,.37.08.49.2-.01-.01-.02-.01-.02,0l-.54.43s-.01,0-.01.01c-.02,0-.03.02-.03.05s.02.06.04.07h.01l.6.35Z" fill="aqua"/><path d="M13.91,40.63c0,.11-.03.21-.07.3,0-.01-.01-.02-.02-.02l-.51-.3.46-.36s.02-.01.01-.02c.08.11.13.25.13.4Z" fill="aqua"/><path d="M58.07,32c0,4.68-1.23,9.07-3.4,12.86l-.04-5.08c-.02-.22-.24-.17-.42-.17-.02-.14.11-.18.14-.32.02-.1.02-.44.01-.64h0c.63-2.11.97-4.34.97-6.65,0-12.86-10.47-23.33-23.33-23.33s-23.33,10.47-23.33,23.33c0,4.12,1.08,8,2.96,11.36-.44.06-.9.14-1.18.04-.09-.03-.11-.17-.19-.23-.07-.05-.19-.03-.2-.04-.02-.01.13-.28.07-.35-.04-.04-1.03-.29-1.16-.28-.24.02-.47.26-.51.27-.04.01-.12,0-.21-.02-1.49-3.28-2.32-6.92-2.32-10.75,0-14.4,11.67-26.07,26.07-26.07s26.07,11.67,26.07,26.07Z" fill="#1d3557"/><path d="M32,5.93c-14.4,0-26.07,11.67-26.07,26.07,0,3.83.83,7.47,2.32,10.75,4.09,9.04,13.18,15.32,23.75,15.32,9.72,0,18.2-5.32,22.67-13.21,2.17-3.79,3.4-8.18,3.4-12.86,0-14.4-11.67-26.07-26.07-26.07ZM54.36,38.64h0c-2.87,9.64-11.81,16.69-22.36,16.69-8.74,0-16.37-4.83-20.37-11.97-1.88-3.36-2.96-7.24-2.96-11.36,0-12.86,10.47-23.33,23.33-23.33s23.33,10.47,23.33,23.33c0,2.31-.34,4.54-.97,6.64Z" fill="#1d3557"/><path d="M54.35,38.51c-.03-.17-.19-.14-.21-.22-.04-.15.03-.38,0-.55-.03-.15-.17-.19-.2-.29-.06-.19.04-.45-.02-.61-.03-.1-.18-.09-.2-.17-.05-.18.05-.49,0-.67-.02-.08-.18-.05-.22-.23-.03-.2.05-.5.01-.69-.02-.06-.19-.08-.27-.31-.21-.66-.32-1.71-.29-2.38.01-.1.11-.16.11-.21,0-.16-.31-.58-.38-.2-.03.11.1.23.09.34-.01.35-.01.75-.04,1.13-.06.76-.39,1.64-.46,2.43l-1.93,1.05c.06-.62-.09-1.41-.01-2.01.03-.17.16-.27.15-.41-.01-.18-.25-.48-.32-.68-.21-.66-.48-2.28-.53-2.99-.01-.16.14-1.58-.1-1.58s-.11.43-.11.53c-.03,1.58-.32,3.13-.65,4.69-.03.16-.17.36-.18.46-.01.11.12.24.13.41.05.83-.04,1.72,0,2.57-.58-.3-1.45-.42-1.99-.71-.32-.17-.27-.35-.37-.49-.05-.07-.2-.04-.23-.08-.05-.06-.01-.34-.19-.41-.49.25-.23.45-.33.8-.05.15-.25.15-.27.23-.04.16.04.39,0,.54-.02.07-.14.07-.18.12-.07.11,0,.32-.1.39-.08.06-.61-.08-.71-.15-.19-.12-.1-.46-.3-.44-.37.02-.22.44-.28.64-.02.1-.15.15-.18.24-.03.12.02.52-.17.57-.05.02-.53-.09-.57-.12-.08-.05-.11-.5-.33-.18-.11.14-.05.31-.09.47-.02.07-.09.14-.12.24-.02.08.02.29,0,.31-.02.02-.42,0-.49-.03-.13-.08-.09-.38-.25-.32-.26.09-.03.56-.29.62-.06.01-.94-.16-1.03-.21-.29-.15-.32-.61-.38-.89-.26-1.22-.46-2.76-.6-4.09-.01-.14-.02-.28-.04-.42,0-.09-.01-.18-.02-.26-.03-.41.07-.83-.07-1.23l-.11.07-.21,1.42-.06.42-.68,4.64c-.27-.07-1.69-.21-1.79-.35-.08-.11-.05-.58-.31-.24l-.22,3.01c-.29.12-.07.45-.07.71.02.9.11,2.4,0,3.25-.03.21-.19.3-.19.47,0,.31.35.83.19,1.25h-1.2c.02-.67-.01-1.34,0-2.01.02-1.07.12-2.17.15-3.24,0-.19.02-1.22-.03-1.29-.02-.03-.15.04-.12-.12.01-.05.22-.02.14-.24h-1.69s0-.16-.1-.29c-.27-.36-.71-.64-1.26-.85-.09-.04-.18-.07-.28-.11-.81-.28-1.82-.44-2.84-.52-.13-.01-.27-.02-.4-.03-.05,0-.11-.01-.16-.01-.25-.01-.51-.02-.75-.02-.73-.02-1.43,0-2.02.05-.19,0-.38.02-.55.04-.2.02-.37.04-.53.06-1.2.17-2.71.54-3.5,1.5-.07.08-.05.21-.08.24-.04.05-1.22-.06-1.43-.06-.11.04-.11.27-.11.38v4.83c-.38-.06-.77-.39-1.12-.46-.44-.1-.95-.06-1.35-.28-.06-.04-.09-.2-.21-.28-.24-.16-.7-.2-.98-.18l-.03-7.82c-.03-.09-.84-.71-.95-.73-.4-.09-1.44.25-1.91.24v6.83c-.2-.04-.47-.01-.75.02,4,7.14,11.63,11.97,20.37,11.97,10.55,0,19.49-7.05,22.36-16.68h0c0-.07-.01-.11-.01-.14ZM13.21,41.33c-.39,0-.7-.32-.7-.7s.31-.7.7-.7c.19,0,.36.08.48.19t-.01.01l-.54.43s-.01,0-.01.01c-.02,0-.03.02-.03.05s.02.06.04.07h.01l.6.35s.01.01.02.01c-.13.17-.34.28-.56.28ZM13.84,40.93s-.01-.02-.02-.02l-.51-.3.46-.36s.01-.01.01-.01c.08.11.13.24.13.39,0,.11-.03.21-.07.3Z" fill="#457b9d"/><path d="M32,0C14.33,0,0,14.33,0,32s14.33,32,32,32,32-14.33,32-32S49.67,0,32,0ZM32,60.63c-15.79,0-28.63-12.84-28.63-28.63S16.21,3.37,32,3.37s28.63,12.84,28.63,28.63-12.84,28.63-28.63,28.63Z" fill="#1d3557"/><path d="M55.33,32c0,2.31-.34,4.54-.97,6.64,0-.06-.01-.1-.01-.13-.03-.17-.19-.14-.21-.22-.04-.15.03-.38,0-.55-.03-.15-.17-.19-.2-.29-.06-.19.04-.45-.02-.61-.03-.1-.18-.09-.2-.17-.05-.18.05-.49,0-.67-.02-.08-.18-.05-.22-.23-.03-.2.05-.5.01-.69-.02-.06-.19-.08-.27-.31-.21-.66-.32-1.71-.29-2.38.01-.1.11-.16.11-.21,0-.16-.31-.58-.38-.2-.03.11.1.23.09.34-.01.35-.01.75-.04,1.13-.06.76-.39,1.64-.46,2.43l-1.93,1.05c.06-.62-.09-1.41-.01-2.01.03-.17.16-.27.15-.41-.01-.18-.25-.48-.32-.68-.21-.66-.48-2.28-.53-2.99-.01-.16.14-1.58-.1-1.58s-.11.43-.11.53c-.03,1.58-.32,3.13-.65,4.69-.03.16-.17.36-.18.46-.01.11.12.24.13.41.05.83-.04,1.72,0,2.57-.58-.3-1.45-.42-1.99-.71-.32-.17-.27-.35-.37-.49-.05-.07-.2-.04-.23-.08-.05-.06-.01-.34-.19-.41-.49.25-.23.45-.33.8-.05.15-.25.15-.27.23-.04.16.04.39,0,.54-.02.07-.14.07-.18.12-.07.11,0,.32-.1.39-.08.06-.61-.08-.71-.15-.19-.12-.1-.46-.3-.44-.37.02-.22.44-.28.64-.02.1-.15.15-.18.24-.03.12.02.52-.17.57-.05.02-.53-.09-.57-.12-.08-.05-.11-.5-.33-.18-.11.14-.05.31-.09.47-.02.07-.09.14-.12.24-.02.08.02.29,0,.31-.02.02-.42,0-.49-.03-.13-.08-.09-.38-.25-.32-.26.09-.03.56-.29.62-.06.01-.94-.16-1.03-.21-.29-.15-.32-.61-.38-.89-.26-1.22-.46-2.76-.6-4.09-.01-.14-.02-.28-.04-.42,0-.09-.01-.18-.02-.26-.03-.41.07-.83-.07-1.23l-.11.07-.21,1.42-.06.42-.68,4.64c-.27-.07-1.69-.21-1.79-.35-.08-.11-.05-.58-.31-.24l-.22,3.01c-.29.12-.07.45-.07.71.02.9.11,2.4,0,3.25-.03.21-.19.3-.19.47,0,.31.35.83.19,1.25h-1.2c.02-.67-.01-1.34,0-2.01.02-1.07.12-2.17.15-3.24,0-.19.02-1.22-.03-1.29-.02-.03-.15.04-.12-.12.01-.05.22-.02.14-.24h-1.69s0-.16-.1-.29c-.27-.36-.71-.64-1.26-.85-.09-.04-.18-.08-.28-.11-.81-.28-1.82-.44-2.84-.52-.13-.01-.27-.02-.4-.03-.05,0-.11-.01-.16-.01-.25-.01-.5-.02-.75-.02-.73-.02-1.43,0-2.02.05-.19,0-.38.02-.55.04-.2.02-.37.04-.53.06-1.2.17-2.71.54-3.5,1.5-.07.08-.05.21-.08.24-.04.05-1.22-.06-1.43-.06-.11.04-.11.27-.11.38v4.83c-.38-.06-.77-.39-1.12-.46-.44-.1-.95-.06-1.35-.28-.06-.04-.09-.2-.21-.28-.24-.16-.7-.2-.98-.18l-.03-7.82c-.03-.09-.84-.71-.95-.73-.4-.09-1.44.25-1.91.24v6.83c-.2-.04-.47-.01-.75.02-1.88-3.36-2.96-7.24-2.96-11.36,0-12.86,10.47-23.33,23.33-23.33s23.33,10.47,23.33,23.33Z" fill="#1d3557"/><path d="M13.77,41.05c-.13.17-.34.28-.56.28-.39,0-.7-.32-.7-.7s.31-.7.7-.7c.19,0,.36.08.48.19t-.01.01l-.54.43s-.01,0-.01.01c-.02,0-.03.02-.03.05s.02.06.04.07h.01l.6.35s.01.01.02.01Z" fill="#1d3557"/><path d="M13.91,40.63c0,.11-.03.21-.07.3,0-.01-.01-.02-.02-.02l-.51-.3.46-.36s.01-.01.01-.01c.08.11.13.24.13.39Z" fill="#1d3557"/><polygon points="39.65 37.56 38.44 40.67 25.55 40.67 24.35 37.56 39.65 37.56" fill="#f4c542"/><path d="M32,13.31c-7.59,0-13.83,3.87-14.5,8.81-.07.53.01,1.08.2,1.58l5.11,13.25.2.5.04.11,1.29,3.34.38.99v1.52c0,2.73,1.51,5.12,3.74,6.36,1.05.58,2.25.92,3.54.92s2.49-.34,3.54-.92c2.23-1.24,3.74-3.63,3.74-6.36v-1.52l.53-1.36,1.14-2.97.04-.11.24-.62,5.07-13.16c.19-.48.27-1,.2-1.52-.65-4.96-6.9-8.84-14.5-8.84ZM39.79,16.13c.06.02.11.04.16.08.8.43,1.4,1.34,1.28,2.81-1.36,5.92-2.2,8.59-4.66,17.33h-1.93c.22-2.02,1.32-13.92,1.91-19.12.22-1.18,1.95-1.7,3.24-1.1ZM32,14.52h.28c.4.03.81.15,1.21.39,1.12.64,1.68,1.94,1.57,3.22-.56,6.45-.82,8.78-1.7,18.22h-2.47c-.84-8.5-1.11-10.8-1.82-19.18,0-1.26,1.36-2.6,2.93-2.65ZM22.92,17.95c.17-.79.52-1.34.96-1.67h.01s.11-.07.17-.09c.15-.08.32-.15.49-.23h.02s.08-.04.12-.05c.94-.22,2.01.2,2.57.94.16.22.26.47.3.74.36,2.46,1.74,16.83,1.94,18.76h-1.98s-.02-.02-.04-.03c-2.16-8.24-3.45-12.29-4.49-16.46-.15-.63-.2-1.28-.07-1.91ZM23.88,36.35l-4.77-12.37c-.33-.85-.46-1.8-.2-2.66.16-.5.43-1.01.65-1.37.07-.14.45-.5.6-.56.35-.15.77-.1,1.09.09.16.09.28.24.32.42,1.3,4.96,4.26,14.51,4.57,16.45h-2.26ZM38.07,43.41c0,3.35-2.73,6.07-6.07,6.07s-6.07-2.72-6.07-6.07v-1.52h12.14v1.52ZM39.43,38.14l-.15.38-.83,2.16h-12.9s-.83-2.16-.83-2.16l-.37-.96h15.3l-.22.58ZM44.95,23.81l-4.83,12.54h-2.18c.23-1.7,4.56-15.98,5.26-16.69.11-.14.33-.14.56-.09.53.12.96.53,1.15,1.04.08.23.16.47.21.69.19.83.14,1.71-.17,2.51Z" fill="#1d3557"/><path d="M38.07,41.89v1.52c0,3.35-2.73,6.07-6.07,6.07s-6.07-2.72-6.07-6.07v-1.52h12.14Z" fill="#f4c542"/><path d="M44.95,23.81l-4.83,12.54h-2.18c.23-1.7,4.56-15.98,5.26-16.69.11-.14.33-.14.56-.09.53.12.96.53,1.15,1.04.08.23.16.47.21.69.19.83.14,1.71-.17,2.51Z" fill="#a8dadc"/><path d="M41.23,19.02c-1.36,5.92-2.2,8.59-4.66,17.33h-1.93c.22-2.02,1.32-13.92,1.91-19.12.22-1.18,1.95-1.7,3.24-1.1.06.02.11.04.16.08.8.43,1.4,1.34,1.28,2.81Z" fill="#a8dadc"/><path d="M35.06,18.13c-.56,6.45-.82,8.78-1.7,18.22h-2.47c-.84-8.5-1.11-10.8-1.82-19.18,0-1.26,1.36-2.6,2.93-2.65h.28c.4.03.81.15,1.21.39,1.12.64,1.68,1.94,1.57,3.22Z" fill="#a8dadc"/><path d="M29.5,36.35h-1.98s-.02-.02-.04-.03c-2.16-8.24-3.45-12.29-4.49-16.46-.15-.63-.2-1.28-.07-1.91.17-.79.52-1.34.96-1.67h.01s.11-.07.17-.09c.15-.08.32-.15.49-.23h.02s.08-.04.12-.05c.94-.22,2.01.2,2.57.94.16.22.26.47.3.74.36,2.46,1.74,16.83,1.94,18.76Z" fill="#a8dadc"/><path d="M26.14,36.35h-2.26l-4.77-12.37c-.33-.85-.46-1.8-.2-2.66.16-.5.43-1.01.65-1.37.07-.14.45-.5.6-.56.35-.15.77-.1,1.09.09.16.09.28.24.32.42,1.3,4.96,4.26,14.51,4.57,16.45Z" fill="#a8dadc"/></svg>